<svg width="835" height="1031" viewBox="0 0 835 1031" fill="none" xmlns="http://www.w3.org/2000/svg">
<g clip-path="url(#clip0_535_12036)">
<path d="M470.969 462.82C553.621 456.079 626.098 517.609 632.873 600.276C639.653 682.942 578.168 755.459 495.521 762.276C412.821 769.097 340.261 707.554 333.479 624.832C326.698 542.111 388.264 469.566 470.969 462.82ZM488.676 701.337C535.904 697.627 568.71 658.239 566.264 611.794C566.043 607.611 566.269 603.548 565.877 599.274C563.889 577.219 553.183 556.866 536.136 542.735C521.706 530.854 497.677 521.315 478.779 523.761C454.749 525.548 435.632 534.841 419.778 553.171C402.043 573.675 398.174 599.037 400.422 625.24C402.291 647.381 412.914 667.865 429.934 682.147C447.895 697.174 465.937 701.699 488.676 701.337Z" fill="#001952"/>
<path d="M474.969 102.421C481.032 102.079 487.111 102.118 493.17 102.538C531.869 104.992 567.941 122.968 593.208 152.392C616.652 179.913 629.552 214.879 629.592 251.038C629.643 256.857 628.953 264.437 628.53 270.363L401.144 270.382C403.566 286.569 410.685 301.688 421.62 313.865C436.331 330.244 456.955 340.097 478.939 341.248C505.862 342.702 524.636 332.529 543.772 315.193C559.184 314.964 575.189 315.172 590.641 315.167L617.12 315.146C615.429 327.443 605.106 340.739 597.063 350.163C571.258 380.321 534.541 398.997 494.975 402.083C455.005 405.263 415.424 392.318 385.054 366.133C355.029 340.267 336.473 303.557 333.45 264.038C330.278 223.878 343.398 184.13 369.852 153.753C397.214 122.321 433.645 105.24 474.969 102.421ZM405.131 218.138L487.965 218.15L557.855 218.148C550.064 196.687 537.31 180.847 516.372 170.662C505.309 165.282 488.215 162.01 475.917 163.809C454.139 165.658 433.997 176.113 419.949 192.86C413.017 201.127 409.177 208.217 405.131 218.138Z" fill="#001952"/>
<path d="M161.278 910.355C163.963 910.008 166.673 909.897 169.377 910.028C181.187 910.612 190.206 916.814 197.789 925.377C197.554 921.148 197.62 915.993 197.576 911.684L211.902 911.634L211.894 997.733C207.459 997.562 202.098 997.693 197.592 997.698L197.746 983.834C196.363 985.52 194.717 987.257 193.24 988.883C178.707 1001.38 156.18 1003.45 141.519 991.275C113.633 968.117 121.813 915.193 161.278 910.355ZM171.994 986.774C211.013 981.191 202.644 918.153 166.86 922.457C137.159 925.241 130.889 962.811 150.937 981.075C156.514 986.15 164.663 987.021 171.994 986.774Z" fill="#001952"/>
<path d="M496.934 910.341C512.369 908.816 523.513 913.563 533.493 925.444C533.332 921.089 533.413 916.09 533.388 911.69L547.641 911.64L547.631 997.709C543.011 997.609 538.048 997.694 533.398 997.694L533.423 983.77C532.124 985.678 530.74 987.027 529.16 988.693C513.99 1001.46 494.795 1003.35 478.036 991.85C458.081 978.152 456.129 943.793 470.055 925.318C476.806 916.362 485.902 911.856 496.934 910.341ZM508.172 986.77C513.673 985.753 517.795 984.575 522.229 980.956C540.711 965.848 536.06 926.768 509.973 922.811C507.794 922.479 504.658 922.136 502.492 922.458C482.545 924.422 473.453 940.722 475.588 959.399C477.767 978.454 489.875 987.414 508.172 986.77Z" fill="#001952"/>
<path d="M368.486 880.036L382.981 879.895C382.636 893.497 382.92 908.272 382.915 921.97L383.18 921.698C397.457 907.074 420.187 905.529 435.755 919.695C447.177 930.09 445.123 948.188 445.082 962.465L445.033 997.75C440.696 997.568 435.342 997.709 430.935 997.714L430.89 948.566C430.997 941.004 429.692 934.858 424.279 929.25C415.534 920.188 398.829 919.941 389.91 928.781C386.867 931.822 384.746 935.658 383.791 939.852C382.448 945.555 382.87 958.055 382.876 964.282L382.94 997.714C378.314 997.589 373.191 997.699 368.525 997.714L368.486 880.036Z" fill="#001952"/>
<path d="M311.099 910.356C328.647 908.489 344.178 914.827 351.077 931.892C347.142 933.146 342.316 934.193 338.247 935.185C331.352 921.728 314.862 918.245 302.311 927.085C300.789 928.157 299.356 931.424 299.55 933.337C300.805 945.666 321.779 945.419 330.652 948.903C342.596 952.251 354.716 957.813 354.409 972.317C353.934 994.835 331.698 999.507 313.696 999.295C294.247 998.671 281.534 987.43 279.77 968.149L292.713 968.118C293.962 974.064 294.901 976.812 299.497 981.278C307.771 989.307 331.295 988.799 338.127 979.652C349.622 963.004 316.373 959.792 306.807 956.484C298.223 953.977 286.625 948.999 285.458 938.724C283.508 921.557 295.445 912.45 311.099 910.356Z" fill="#001952"/>
<path d="M696.829 910.311C698.384 910.109 699.95 910.009 701.52 910.014C711.289 909.989 720.762 912.571 727.783 919.679C731.81 923.792 734.638 928.932 735.967 934.535C737.643 941.513 737.17 955.281 737.155 963.134L737.049 997.739C732.695 997.588 727.582 997.704 723.173 997.704L723.228 964.65C723.243 958.256 723.646 951.224 722.966 944.891C721.024 926.873 709.15 921.059 692.828 922.932C672.272 929.139 674.88 945.817 674.895 963.306L674.915 997.739C670.516 997.553 665.045 997.699 660.565 997.704L660.535 911.685L674.94 911.64L674.89 922.111C681.297 915.224 687.533 911.831 696.829 910.311Z" fill="#001952"/>
<path d="M602.09 910.255C603.515 910.149 604.939 910.084 606.368 910.059C615.237 909.842 613.646 915.471 613.49 922.342C612.302 922.327 611.115 922.322 609.927 922.322C580.568 922.352 581.802 941.694 581.827 964.191L581.872 997.729L568.705 997.643C568.474 997.628 568.056 997.377 567.814 997.256C567.432 995.242 567.684 976.691 567.679 973.721L567.588 911.685L581.882 911.64L581.842 922.971C587.57 916.044 593.312 912.198 602.09 910.255Z" fill="#001952"/>
<path d="M266.414 910.255C270.902 909.761 273.094 910.184 277.473 911.121C277.808 914.156 277.694 919.14 277.716 922.327C268.606 922.256 260.089 922.427 253.139 929.193C244.193 937.902 246.088 952.461 246.09 963.834L246.088 997.734C241.833 997.638 237.257 997.709 232.977 997.703L232.178 997.442C231.742 994.92 231.995 976.016 231.992 972.648L232.011 911.654L246.097 911.629L246.084 922.961C251.695 916.125 257.741 912.067 266.414 910.255Z" fill="#001952"/>
<path d="M626.27 911.685L640.684 911.635V966.532C640.695 976.359 640.996 987.953 640.569 997.674L626.305 997.689C626.481 969.024 626.471 940.355 626.27 911.685Z" fill="#001952"/>
<path d="M626.189 880.036C630.971 879.925 635.908 879.95 640.7 879.91C640.7 883.021 641.067 897.827 640.131 899.08L626.35 899.131C626.406 892.722 626.507 886.439 626.189 880.036Z" fill="#001952"/>
<path d="M137.024 0H162.79C173.003 2.11998 179.581 2.27332 190.558 5.31066C225.708 15.1516 256.078 37.4439 276.005 68.0304C289.7 89.0612 297.854 113.214 299.71 138.244C300.388 147.761 300.084 159.529 300.083 169.232L300.054 218.863C293.795 218.155 279.471 218.476 272.546 218.548C259.781 218.682 245.715 218.237 233.079 218.639L233.127 171.135C233.139 155.709 234.136 137.532 230.292 122.827C226.515 108.589 219.016 95.6132 208.565 85.2332C192.969 69.6192 171.781 60.8839 149.714 60.9695C127.467 61.0515 106.193 70.1085 90.713 86.089C79.0029 97.9037 71.1874 113.019 68.3165 129.406C66.0219 143.071 66.8876 171.206 66.8886 186.259L66.8976 285.67L66.9057 505.849C66.9047 542.609 67.0335 579.459 66.9007 616.214C66.7275 664.034 103.503 702.354 152.104 701.412C174.176 700.914 195.124 691.575 210.254 675.491C220.974 664.26 228.285 650.215 231.338 634.991C233.714 623.201 233.142 610.279 233.137 598.202L233.113 556.101L233.111 402.614L166.318 402.685C166.497 382.812 166.765 361.185 166.33 341.386L300.038 341.341L300.066 532.349L300.078 587C300.091 608.204 301.147 626.081 296.246 646.867C289.843 674.036 276.043 698.905 256.377 718.715C228.116 746.992 189.739 762.819 149.764 762.678C109.855 762.698 71.587 746.78 43.4637 718.458C23.7692 698.699 10.0156 673.81 3.76807 646.62C1.95689 638.712 1.50424 630.929 0 624.117V138.1C1.23099 132.283 1.71079 125.613 2.9554 119.38C6.75016 100.89 14.0331 83.293 24.4144 67.53C44.2889 37.1956 74.466 15.078 109.373 5.26177C119.712 2.40977 127.185 2.04602 137.024 0Z" fill="#001952"/>
<path d="M666.076 0H733.38L733.39 102.189L816.145 102.151C815.818 108.23 816.069 116.889 816.069 123.174L816.079 163.5C789.952 162.832 759.582 163.107 733.385 163.494L733.395 254.028C733.465 293.073 752.793 324.107 790.954 337.382C805.278 342.364 819.457 341.421 834.365 341.347C834.652 360.681 834.712 383.354 834.294 402.6L834.073 402.604C819.165 402.747 798.156 403.256 783.807 401.743C754.66 398.617 727.395 385.832 706.352 365.421C688.484 348.188 675.871 326.235 669.977 302.117C665.095 282.238 666.127 264.669 666.137 244.39L666.162 193.184C666.172 129.207 666.877 63.8691 666.076 0Z" fill="#001952"/>
<path d="M820.418 983.084C805.515 1000.61 781.466 1002.55 763.795 988.274C749.038 976.353 746.29 949.471 753.834 933.135C766.588 905.507 800.965 902.235 820.418 924.592L820.363 911.694L834.41 911.619L834.43 965.328C834.44 997.074 837.435 1021.16 800.054 1031H784.839C765.954 1025.59 755.692 1017.32 751.59 997.26L764.751 997.215C770.071 1013.65 784.084 1023.08 801.257 1017.43C808.142 1015.2 813.804 1010.24 816.915 1003.7C820.146 997.049 820.509 990.338 820.418 983.084ZM795.348 985.158C797.598 984.755 799.802 984.362 801.972 983.607C828.38 974.45 826.01 926.495 797.044 922.734C795.096 922.482 792.419 922.155 790.471 922.457C783.253 923.177 774.893 926.122 770.816 932.284C755.737 955.084 765.511 986.039 795.348 985.158Z" fill="#001952"/>
<path d="M0 930.376C0.76143 926.389 1.50793 922.568 2.51687 918.631C10.1983 888.668 39.7217 873.223 69.2768 879.299C83.876 882.31 96.6607 891.044 104.77 903.554C109.044 910.098 111.289 916.2 113.159 923.701L97.5838 923.696C93.4868 911.634 87.2296 902.28 75.4696 896.436C65.4733 891.467 53.3273 891.074 42.7839 894.643C8.01676 906.408 6.62735 966.37 39.2359 981.347C49.1167 985.883 61.6531 986.497 71.8498 982.611C86.9729 976.847 93.7842 965.857 98.3614 951.162L113.644 951.117C109.468 968.525 102.378 981.508 86.6462 991.36C73.5374 999.571 56.5374 1001.25 41.6083 997.557C27.803 994.28 15.9037 985.571 8.60266 973.398C3.63251 965.062 1.74181 956.584 0 947.19V930.376Z" fill="#001952"/>
</g>
<defs>
<clipPath id="clip0_535_12036">
<rect width="835" height="1031" fill="white"/>
</clipPath>
</defs>
</svg>
